<svg version="1.1" xmlns="http://www.w3.org/2000/svg" xmlns:xlink="http://www.w3.org/1999/xlink" width="89.79628" height="89.51243" viewBox="0,0,89.79628,89.51243"><g transform="translate(-195.10186,-135.24378)"><g data-paper-data="{&quot;isPaintingLayer&quot;:true}" fill-rule="nonzero" stroke-linecap="butt" stroke-linejoin="miter" stroke-miterlimit="10" stroke-dasharray="" stroke-dashoffset="0" style="mix-blend-mode: normal"><path d="M196.10186,223.75622v-87.51243h87.79628v87.51243z" fill="#ffffff" stroke="#000000" stroke-width="2"/><path d="M255.34855,140.99472c0.4015,-0.427 0.5411,0.0164 1.4369,0.6158c3.571,2.4345 6.0777,5.9644 10.6742,7.3898c-0.2832,14.7698 -15.1943,14.9119 -17.2429,27.9172c5.4167,6.6262 8.7545,15.3314 15.6007,20.5273c0.5346,3.5455 -1.4188,4.6022 -2.4632,6.5688c-0.1273,2.3171 2.3212,2.0584 3.2843,3.2843c-2.0658,6.692 -10.9074,6.609 -13.1375,13.1375c-0.2734,0 -0.5476,0 -0.8211,0c-5.1269,-8.5574 -11.3557,-16.0137 -15.6007,-25.4539c-4.2443,4.1228 -8.1904,11.4633 -7.3899,18.0641c-4.158,0.0944 -5.8125,0.8613 -7.3898,4.9266c-5.6458,-1.1964 -7.8759,-5.8093 -13.1375,-7.3899c0,-0.8211 0,-1.6422 0,-2.4633c6.3076,-8.7454 11.7564,-18.3506 17.243,-27.9171c-2.919,-6.9342 -6.6098,-13.0965 -13.1375,-16.4219c2.221,-5.985 4.6876,-4.8929 1.6422,-11.4953c3.4149,-3.4273 7.1591,-6.5252 11.4953,-9.032c5.7443,4.383 7.903,12.3508 13.9585,16.4218c1.7399,-5.9233 4.8888,-10.147 7.3899,-15.6007c1.6816,-0.7242 3.4527,1.0994 4.9265,0.4105c1.4214,-0.6552 1.4058,-2.7498 2.6686,-3.4896zM241.18465,165.42223c-8.6477,-2.8476 -8.3226,-14.668 -16.4218,-18.0641c-0.8145,3.5652 -5.3092,3.4486 -6.5688,6.5688c6.8414,6.0219 12.782,12.9462 16.4219,22.1695c-4.8198,10.2341 -12.2819,17.8251 -15.6008,29.5594c2.0199,1.5379 4.5489,2.5675 6.5688,4.1054c4.9889,-8.4219 6.7091,-20.1135 14.7796,-25.4539c5.5868,7.0031 8.4565,16.7241 14.7797,22.9906c1.3006,-3.0791 2.4896,-6.269 6.5688,-6.5687c-4.0899,-8.2265 -10.3146,-14.3182 -15.6008,-21.3484c-0.4368,-13.4627 11.0807,-16.8645 17.243,-27.0961c-9.4664,-15.2288 -13.4405,10.2062 -22.1696,13.1375z" fill="#000000" stroke="none" stroke-width="0.82109"/><path d="M263.35425,152.28473c-6.1623,10.2316 -17.6798,13.6334 -17.243,27.0961c5.2862,7.0302 11.5109,13.1219 15.6008,21.3484c-4.0792,0.2997 -5.2682,3.4896 -6.5688,6.5687c-6.3232,-6.2665 -9.1929,-15.9875 -14.7797,-22.9906c-8.0705,5.3404 -9.7907,17.032 -14.7796,25.4539c-2.0199,-1.5379 -4.5489,-2.5675 -6.5688,-4.1054c3.3189,-11.7343 10.781,-19.3253 15.6008,-29.5594c-3.6399,-9.2233 -9.5805,-16.1476 -16.4219,-22.1695c1.2596,-3.1202 5.7543,-3.0036 6.5688,-6.5688c8.0992,3.3961 7.7741,15.2165 16.4218,18.0641c8.7291,-2.9313 12.7032,-28.3663 22.1696,-13.1375z" fill="#ff9400" stroke="none" stroke-width="0.82109"/></g></g></svg>