<svg version="1.1" xmlns="http://www.w3.org/2000/svg" xmlns:xlink="http://www.w3.org/1999/xlink" width="89.79628" height="89.51243" viewBox="0,0,89.79628,89.51243"><g transform="translate(-195.10186,-135.24378)"><g data-paper-data="{&quot;isPaintingLayer&quot;:true}" fill-rule="nonzero" stroke-linecap="butt" stroke-linejoin="miter" stroke-miterlimit="10" stroke-dasharray="" stroke-dashoffset="0" style="mix-blend-mode: normal"><path d="M196.10186,223.75622v-87.51243h87.79628v87.51243z" fill="#ffffff" stroke="#000000" stroke-width="2"/><path d="M236.5654,141.1724c2.8731,-0.5498 5.9611,-0.5104 8.8678,0l13.3018,3.6949c4.49,1.275 12.1095,15.6922 14.7797,24.8793c2.2603,8.2845 2.8919,18.2943 -0.4927,25.6182c-8.5555,11.5006 -15.1137,24.956 -35.4713,24.6329c-2.2988,0 -4.5985,0 -6.8972,0c-10.5587,-3.893 -13.4861,-15.4163 -21.677,-21.677c0,-3.6131 0,-7.2273 0,-10.8385c0,-12.3351 -1.6208,-12.9372 0,-15.765c5.1778,-13.8979 17.1918,-21.5814 27.5889,-30.5448zM215.8737,190.43819c7.7308,8.8245 10.4927,19.0619 21.677,20.6916c13.4387,1.9578 27.8302,-7.4578 31.5301,-15.765c10.0482,-22.5598 -7.1042,-56.4005 -28.5742,-51.2364c-17.3386,7.3051 -24.0131,24.7353 -24.6329,46.3098z" fill="#000000" stroke="none" stroke-width="0.98532"/><path d="M240.5066,144.1284c21.47,-5.1641 38.6224,28.6766 28.5742,51.2364c-3.6999,8.3072 -18.0914,17.7228 -31.5301,15.765c-11.1843,-1.6297 -13.9462,-11.8671 -21.677,-20.6916c0.6198,-21.5745 7.2943,-39.0047 24.6329,-46.3098zM225.7269,185.5116c1.3548,7.2243 9.5093,18.0934 17.7357,18.721c21.2562,1.6218 22.3154,-24.9521 17.7356,-42.3686c-18.4618,-21.8582 -39.7584,0.7981 -35.4713,23.6476z" fill="#ff9400" stroke="none" stroke-width="0.98532"/><path d="M261.1982,161.86399c4.5798,17.4165 3.5206,43.9904 -17.7356,42.3686c-8.2264,-0.6276 -16.3809,-11.4967 -17.7357,-18.721c-4.2871,-22.8495 17.0095,-45.5058 35.4713,-23.6476zM230.6535,190.43819c1.7292,3.3698 9.4807,9.9379 12.8091,9.8531c5.4626,-0.1399 11.5912,-9.8304 11.8238,-18.721c0.3813,-14.5521 -5.5947,-24.7353 -20.6917,-21.6769c-3.2259,6.4932 -9.1348,20.4276 -3.9412,30.5448z" fill="#000000" stroke="none" stroke-width="0.98532"/><path d="M234.57738,159.84648c15.097,-3.0584 21.13989,7.17821 20.75859,21.73031c-0.2326,8.8906 -6.40709,18.62446 -11.86969,18.76436c-3.3284,0.0848 -11.12002,-6.49892 -12.84922,-9.86872c-5.1936,-10.1172 0.73442,-24.13275 3.96032,-30.62595z" data-paper-data="{&quot;noHover&quot;:false,&quot;origItem&quot;:[&quot;Path&quot;,{&quot;applyMatrix&quot;:true,&quot;segments&quot;:[[[230.6535,190.4382],[-5.1936,-10.1172],[1.7292,3.3698]],[[243.4626,200.2913],[-3.3284,0.0848],[5.4626,-0.1399]],[[255.2864,181.5703],[-0.2326,8.8906],[0.3813,-14.5521]],[[234.5947,159.8934],[15.097,-3.0584],[-3.2259,6.4932]]],&quot;closed&quot;:true,&quot;fillColor&quot;:[0,0,0,1]}]}" fill="#ffffff" stroke="none" stroke-width="0.5"/></g></g></svg>